<?xml version="1.0" encoding="utf-8"?>
<svg version="1.1" xmlns:xlink="http://www.w3.org/1999/xlink" width="20px" height="14px" xmlns="http://www.w3.org/2000/svg">
  <g transform="matrix(1 0 0 1 -989 -1856 )">
    <path d="M 19.83584449404762 0.18168402777781315  C 19.905598958333332 0.2509548611111465  19.94047619047619 0.33946759259263976  19.94047619047619 0.4472222222221868  L 19.94047619047619 5.469357638888853  C 19.94047619047619 5.630989583333333  19.864908854166668 5.74451678240736  19.71377418154762 5.809939236111147  C 19.562639508928573 5.875361689814826  19.42506820436506 5.84649884259264  19.301060267857142 5.72335069444448  L 17.894345238095237 4.326388888888854  L 10.535249255952381 11.63446180555552  C 10.457744295634939 11.711429398148159  10.368613591269824 11.74991319444448  10.267857142857142 11.74991319444448  C 10.167100694444462 11.74991319444448  10.077969990079348 11.711429398148159  10.000465029761905 11.63446180555552  L 7.291666666666666 8.94444444444448  L 2.455357142857143 13.747222222222188  L 0.22321428571428573 11.530555555555521  L 7.024274553571429 4.77664930555552  C 7.101779513888871 4.699681712962986  7.190910218253986 4.661197916666667  7.291666666666666 4.661197916666667  C 7.392423115079348 4.661197916666667  7.481553819444462 4.699681712962986  7.559058779761905 4.77664930555552  L 10.267857142857142 7.466666666666667  L 15.662202380952381 2.109722222222187  L 14.255487351190476 0.7127604166666667  C 14.131479414682557 0.5896122685185068  14.102415054563512 0.4529947916666667  14.168294270833332 0.30290798611114644  C 14.234173487103156 0.1528211805555202  14.348493303571427 0.07777777777781314  14.511253720238095 0.07777777777781314  L 19.56845238095238 0.07777777777781314  C 19.676959325396844 0.07777777777781314  19.766090029761905 0.11241319444447982  19.83584449404762 0.18168402777781315  Z " fill-rule="nonzero" fill="#309282" stroke="none" transform="matrix(1 0 0 1 989 1856 )" />
  </g>
</svg>