<?xml version="1.0" encoding="utf-8"?>
<svg version="1.1" xmlns:xlink="http://www.w3.org/1999/xlink" width="5px" height="5px" xmlns="http://www.w3.org/2000/svg">
  <g transform="matrix(1 0 0 1 -245 -655 )">
    <path d="M 247.5 655  C 248.9 655  250 656.1  250 657.5  C 250 658.9  248.9 660  247.5 660  C 246.1 660  245 658.9  245 657.5  C 245 656.1  246.1 655  247.5 655  Z " fill-rule="nonzero" fill="#ffffff" stroke="none" fill-opacity="0" />
    <path d="M 247.5 655.5  C 248.62 655.5  249.5 656.38  249.5 657.5  C 249.5 658.62  248.62 659.5  247.5 659.5  C 246.38 659.5  245.5 658.62  245.5 657.5  C 245.5 656.38  246.38 655.5  247.5 655.5  Z " stroke-width="1" stroke="#4b4b4b" fill="none" />
  </g>
</svg>