<?xml version="1.0" encoding="utf-8"?>
<svg version="1.1" xmlns:xlink="http://www.w3.org/1999/xlink" width="22px" height="20px" xmlns="http://www.w3.org/2000/svg">
  <defs>
    <mask fill="white" id="clip16">
      <path d="M 0.31730769230769235 10  L 5.60576923076923 10  L 5.60576923076923 19.7435897435898  L 0.31730769230769235 19.7435897435898  L 0.31730769230769235 10  Z M 8.25 0.2564102564101981  L 13.53846153846154 0.2564102564101981  L 13.53846153846154 19.7435897435898  L 8.25 19.7435897435898  L 8.25 0.2564102564101981  Z M 16 5.128205128205186  L 21.471153846153847 5.128205128205186  L 21.471153846153847 19.7435897435898  L 16 19.7435897435898  L 16 5.128205128205186  Z " fill-rule="evenodd" />
    </mask>
  </defs>
  <g transform="matrix(1 0 0 1 -787 -1744 )">
    <path d="M 0.31730769230769235 10  L 5.60576923076923 10  L 5.60576923076923 19.7435897435898  L 0.31730769230769235 19.7435897435898  L 0.31730769230769235 10  Z M 8.25 0.2564102564101981  L 13.53846153846154 0.2564102564101981  L 13.53846153846154 19.7435897435898  L 8.25 19.7435897435898  L 8.25 0.2564102564101981  Z M 16 5.128205128205186  L 21.471153846153847 5.128205128205186  L 21.471153846153847 19.7435897435898  L 16 19.7435897435898  L 16 5.128205128205186  Z " fill-rule="nonzero" fill="#000000" stroke="none" fill-opacity="0" transform="matrix(1 0 0 1 787 1744 )" />
    <path d="M 0.31730769230769235 10  L 5.60576923076923 10  L 5.60576923076923 19.7435897435898  L 0.31730769230769235 19.7435897435898  L 0.31730769230769235 10  Z " stroke-width="4" stroke="#333333" fill="none" transform="matrix(1 0 0 1 787 1744 )" mask="url(#clip16)" />
    <path d="M 8.25 0.2564102564101981  L 13.53846153846154 0.2564102564101981  L 13.53846153846154 19.7435897435898  L 8.25 19.7435897435898  L 8.25 0.2564102564101981  Z " stroke-width="4" stroke="#333333" fill="none" transform="matrix(1 0 0 1 787 1744 )" mask="url(#clip16)" />
    <path d="M 16 5.128205128205186  L 21.471153846153847 5.128205128205186  L 21.471153846153847 19.7435897435898  L 16 19.7435897435898  L 16 5.128205128205186  Z " stroke-width="4" stroke="#333333" fill="none" transform="matrix(1 0 0 1 787 1744 )" mask="url(#clip16)" />
  </g>
</svg>