<?xml version="1.0" encoding="utf-8"?>
<svg version="1.1" xmlns:xlink="http://www.w3.org/1999/xlink" width="18px" height="22px" xmlns="http://www.w3.org/2000/svg">
  <g transform="matrix(1 0 0 1 -789 -1898 )">
    <path d="M 16 19.920687376074024  L 16 2  L 2 2  L 2 19.920687376074024  L 7.7484375000000005 14.01718440185063  L 9 12.781229345670852  L 10.2515625 14.01718440185063  L 16 19.920687376074024  Z M 1.6312499999999999 0  L 16.368750000000002 0  C 16.584375 0  16.790625000000002 0.04362194315928658  16.9875 0.13086582947785974  C 17.296875 0.25688477638246  17.54296875 0.4556069618858769  17.72578125 0.7270323859881032  C 17.908593749999998 0.998457810090327  18 1.298964529632076  18 1.6285525446133502  L 18 20.37144745538665  C 18 20.701035470367923  17.908593749999998 21.00154218990967  17.72578125 21.272967614011897  C 17.54296875 21.544393038114123  17.296875 21.743115223617536  16.9875 21.86913417052214  C 16.809375000000003 21.946684291694204  16.603125000000002 21.985459352280238  16.368750000000002 21.985459352280238  C 15.918750000000001 21.985459352280238  15.529687500000003 21.830359109936108  15.2015625 21.520158625247852  L 9 15.354923992068738  L 2.7984375 21.520158625247852  C 2.4609375 21.840052875082616  2.0718750000000004 22  1.6312499999999999 22  C 1.415625 22  1.2093749999999999 21.956378056840713  1.0125 21.86913417052214  C 0.703125 21.743115223617536  0.45703125 21.544393038114123  0.27421875 21.272967614011897  C 0.09140625000000001 21.00154218990967  0 20.701035470367923  0 20.37144745538665  L 0 1.6285525446133502  C 0 1.298964529632076  0.09140625000000001 0.998457810090327  0.27421875 0.7270323859881032  C 0.45703125 0.4556069618858769  0.703125 0.25688477638246  1.0125 0.13086582947785974  C 1.2093749999999999 0.04362194315928658  1.415625 0  1.6312499999999999 0  Z " fill-rule="nonzero" fill="#9fa0a5" stroke="none" transform="matrix(1 0 0 1 789 1898 )" />
  </g>
</svg>