<?xml version="1.0" encoding="utf-8"?>
<svg version="1.1" xmlns:xlink="http://www.w3.org/1999/xlink" width="128px" height="42px" xmlns="http://www.w3.org/2000/svg">
  <defs>
    <filter x="1222px" y="2269px" width="128px" height="42px" filterUnits="userSpaceOnUse" id="filter17">
      <feOffset dx="0" dy="0" in="SourceAlpha" result="shadowOffsetInner" />
      <feGaussianBlur stdDeviation="2.5" in="shadowOffsetInner" result="shadowGaussian" />
      <feComposite in2="shadowGaussian" operator="atop" in="SourceAlpha" result="shadowComposite" />
      <feColorMatrix type="matrix" values="0 0 0 0 0  0 0 0 0 0  0 0 0 0 0  0 0 0 0.3137254901960784 0  " in="shadowComposite" />
    </filter>
    <g id="widget18">
      <path d="M 4.600397056660768 31.68236821641449  C 3.4179962784389772 31.651252406461253  2.4222903599365964 31.231188972092923  1.6132793011531703 30.422177913309724  C 0.7887103373932405 29.597608949549794  0.37642585551338925 28.609681983535665  1 27.45839701526711  L 1 4.518266127267907  C 0.38420480800164114 3.3358653490461165  0.8042682423699716 2.3401594305437357  1.6132793011531703 1.5311483717603096  C 2.4378482649131 0.7065794080003798  3.425775230927229 0.29429492612052854  4.577060199195785 0.29429492612052854  L 99.44899964176557 0.3409686410504946  C 100.61584251501063 0.3254107360737635  101.90325915182439 0.6093425018966627  103.31124955220685 1.1927639385194198  C 104.7192399525893 1.7761853751419494  105.83551963466061 2.480180575333179  106.66008859842032 3.3047495390928816  L 116.36822130381984 13.012882244492403  C 117.17723236260326 13.821893303275829  117.58173789199463 14.81759922177821  117.58173789199486 16  C 117.58173789199463 17.18240077822179  117.17723236260326 18.17810669672417  116.36822130381984 18.987117755507597  L 106.66008859842032 28.69525046090689  C 105.83551963466061 29.51981942466682  104.7192399525893 30.22381462485805  103.31124955220685 30.80723606148058  C 101.90325915182439 31.390657498103337  100.60806356252237 31.68236821641449  99.42566278430058 31.68236821641449  L 4.600397056660768 31.68236821641449  Z " fill-rule="nonzero" fill="#f82f2f" stroke="none" transform="matrix(1 0 0 1 1227 2274 )" />
    </g>
  </defs>
  <g transform="matrix(1 0 0 1 -1222 -2269 )">
    <use xlink:href="#widget18" filter="url(#filter17)" />
    <use xlink:href="#widget18" />
  </g>
</svg>