<?xml version="1.0" encoding="utf-8"?>
<svg version="1.1" xmlns:xlink="http://www.w3.org/1999/xlink" width="32px" height="54px" xmlns="http://www.w3.org/2000/svg">
  <g transform="matrix(1 0 0 1 -1456 -1408 )">
    <path d="M 18.354166666666668 50.98359375  C 19.006944444444446 50.32265625  19.333333333333332 49.528125  19.333333333333332 48.6  C 19.333333333333332 47.671875  19.006944444444446 46.87734375  18.354166666666668 46.21640625  C 17.70138888888889 45.555468749999996  16.916666666666668 45.225  16 45.225  C 15.083333333333334 45.225  14.298611111111112 45.555468749999996  13.645833333333334 46.21640625  C 12.993055555555557 46.87734375  12.666666666666666 47.671875  12.666666666666666 48.6  C 12.666666666666666 49.528125  12.993055555555557 50.32265625  13.645833333333334 50.98359375  C 14.298611111111112 51.64453125  15.083333333333334 51.975  16 51.975  C 16.916666666666668 51.975  17.70138888888889 51.64453125  18.354166666666668 50.98359375  Z M 27.604166666666668 42.79921875  C 27.868055555555557 42.532031249999996  28 42.215624999999996  28 41.85  L 28 12.149999999999999  C 28 11.784374999999995  27.868055555555557 11.467968749999995  27.604166666666668 11.200781249999999  C 27.340277777777782 10.933593749999996  27.027777777777782 10.799999999999997  26.666666666666668 11  L 5.333333333333333 11  C 4.972222222222222 10.799999999999997  4.659722222222222 10.933593749999996  4.395833333333333 11.200781249999999  C 4.131944444444444 11.467968749999995  4 11.784374999999995  4 12.149999999999999  L 4 41.85  C 4 42.215624999999996  4.131944444444444 42.532031249999996  4.395833333333333 42.79921875  C 4.659722222222222 43.06640625  4.972222222222222 43.2  5.333333333333333 43  L 26.666666666666668 43  C 27.027777777777782 43.2  27.340277777777782 43.06640625  27.604166666666668 42.79921875  Z M 19.333333333333332 6.75  C 19.777777777777782 6.75  20.000000000000004 6.524999999999995  20 6.075000000000003  C 20.000000000000004 5.624999999999998  19.777777777777782 5.399999999999999  19.333333333333332 5.399999999999999  L 12.666666666666666 5.399999999999999  C 12.222222222222223 5.399999999999999  12 5.624999999999998  12 6.075000000000003  C 12 6.524999999999995  12.222222222222223 6.75  12.666666666666666 6.75  L 19.333333333333332 6.75  Z M 30.416666666666668 1.6031249999999988  C 31.472222222222218 2.6718749999999982  32 3.9374999999999982  32 5.399999999999999  L 32 48.6  C 32 50.0625  31.472222222222218 51.328125  30.416666666666668 52.396875  C 29.361111111111114 53.465624999999996  28.111111111111114 54  26.666666666666668 54  L 5.333333333333333 54  C 3.8888888888888893 54  2.638888888888889 53.465624999999996  1.5833333333333333 52.396875  C 0.5277777777777778 51.328125  0 50.0625  0 48.6  L 0 5.399999999999999  C 0 3.9374999999999982  0.5277777777777778 2.6718749999999982  1.5833333333333333 1.6031249999999988  C 2.638888888888889 0.5343749999999936  3.8888888888888893 0  5.333333333333333 0  L 26.666666666666668 0  C 28.111111111111114 0  29.361111111111114 0.5343749999999936  30.416666666666668 1.6031249999999988  Z " fill-rule="nonzero" fill="#9e9e9e" stroke="none" transform="matrix(1 0 0 1 1456 1408 )" />
  </g>
</svg>