<?xml version="1.0" encoding="utf-8"?>
<svg version="1.1" xmlns:xlink="http://www.w3.org/1999/xlink" width="13px" height="11px" xmlns="http://www.w3.org/2000/svg">
  <g transform="matrix(1 0 0 1 -213 -157 )">
    <path d="M 3.7489660000000002 0.1316333333333335  C 2.8663843 0.1316333333333335  1.9810570000000003 0.46459844444444437  1.3268320000000002 1.131563888888889  C 0.018053100000000124 2.4660325555555556  0.019726200000000315 4.569308333333333  1.3268320000000002 5.904341666666666  L 5.9743319999999995 10.65184388888889  C 6.110070459999999 10.789434333333332  6.299985899999999 10.867694444444448  6.4994137 10.867694444444448  C 6.698827199999999 10.867694444444448  6.889317499999999 10.789443744444446  7.0244954 10.65184388888889  C 8.5746154 9.07158388888889  10.121875399999999 7.492937222222223  11.6719954 5.9126772222222215  C 12.980774299999998 4.578208555555556  12.980774299999998 2.4702272222222224  11.6719954 1.1357316666666675  C 10.3632165 -0.19873699999999922  8.1411824 -0.19873699999999922  6.8323034 1.1357316666666675  L 6.501615899999999 1.4718427777777783  L 6.166452499999999 1.1315370000000011  C 5.512341899999999 0.46457155555555685  4.631490499999999 0.13160644444444544  3.7488944999999996 0.13160644444444544  Z M 3.7489660000000002 1.438272  C 4.2360526 1.438272  4.721480400000001 1.640463000000001  5.1164035000000005 2.0432720000000004  L 5.9788651 2.921355555555556  C 6.114603559999999 3.058946  6.304518999999999 3.1372061111111114  6.5039468 3.1372061111111114  C 6.7033603 3.1372061111111114  6.8938506 3.0589554111111115  7.029028500000001 2.921355555555556  L 7.8870285 2.047466666666667  C 8.677432399999999 1.2418486666666668  9.8315425 1.2418486666666668  10.6219035 2.047466666666667  C 11.4123074 2.8530846666666667  11.4123074 4.195485555555556  10.6219035 5.001076666666667  C 9.2477593 6.402256666666666  7.875874499999998 7.801823333333334  6.5017875 9.202465555555555  L 2.3816715 4.996908888888888  C 1.5918253000000004 4.189717888888889  1.5912676000000003 2.848890000000001  2.3816715 2.0432988888888888  C 2.7765946000000006 1.6404898888888892  3.262008100000001 1.438298888888889  3.7491090000000002 1.438298888888889  Z " fill-rule="nonzero" fill="#a6a6bb" stroke="none" transform="matrix(1 0 0 1 213 157 )" />
  </g>
</svg>