<?xml version="1.0" encoding="utf-8"?>
<svg version="1.1" xmlns:xlink="http://www.w3.org/1999/xlink" width="24px" height="24px" xmlns="http://www.w3.org/2000/svg">
  <g transform="matrix(1 0 0 1 -438 -3745 )">
    <path d="M 14.828125 14.828125000000002  C 15.609375 14.046874999999998  16 13.104166666666666  16 12  C 16 10.895833333333332  15.609375 9.953125  14.828125 9.171875  C 14.046875 8.390625  13.104166666666668 8  12 8  C 10.895833333333334 8  9.953125 8.390625  9.171875 9.171875  C 8.390625 9.953125  8 10.895833333333332  8 12  C 8 13.104166666666666  8.390625 14.046874999999998  9.171875 14.828125000000002  C 9.953125 15.609375  10.895833333333334 16  12 16  C 13.104166666666668 16  14.046875 15.609375  14.828125 14.828125000000002  Z M 23.875 9.9296875  C 23.958333333333332 10.0390625  24 10.161458333333332  24 10.296875  L 24 13.765624999999998  C 24 13.890625000000002  23.958333333333332 14.010416666666668  23.875 14.125000000000002  C 23.791666666666668 14.23958333333333  23.6875 14.307291666666664  23.5625 14.328124999999998  L 20.671875 14.765625  C 20.473958333333336 15.328125  20.270833333333336 15.802083333333332  20.0625 16.1875  C 20.427083333333336 16.708333333333336  20.984375 17.42708333333333  21.734375 18.34375  C 21.838541666666668 18.46875  21.890625 18.598958333333332  21.890625 18.734375  C 21.890625 18.869791666666668  21.84375 18.989583333333332  21.75 19.09375  C 21.46875 19.479166666666668  20.953125 20.041666666666668  20.203125 20.78125  C 19.453125 21.520833333333332  18.963541666666668 21.890625  18.734375 21.890625  C 18.609375 21.890625  18.473958333333336 21.84375  18.328125 21.75  L 16.171875 20.0625  C 15.713541666666668 20.302083333333332  15.239583333333336 20.5  14.75 20.65625  C 14.583333333333336 22.072916666666668  14.432291666666668 23.041666666666668  14.296875 23.5625  C 14.223958333333334 23.854166666666668  14.036458333333334 24  13.734375 24  L 10.265625 24  C 10.119791666666668 24  9.9921875 23.955729166666668  9.8828125 23.8671875  C 9.7734375 23.778645833333332  9.713541666666668 23.666666666666668  9.703125 23.53125  L 9.265625 20.65625  C 8.755208333333334 20.489583333333332  8.286458333333334 20.296875  7.859375 20.078125  L 5.65625 21.75  C 5.552083333333334 21.84375  5.421875 21.890625  5.265625 21.890625  C 5.119791666666667 21.890625  4.989583333333334 21.833333333333332  4.875 21.71875  C 3.5625 20.53125  2.703125 19.65625  2.296875 19.09375  C 2.2239583333333335 18.989583333333332  2.1875 18.869791666666668  2.1875 18.734375  C 2.1875 18.609375  2.229166666666667 18.489583333333332  2.3125 18.375  C 2.46875 18.15625  2.734375 17.809895833333336  3.109375 17.3359375  C 3.484375 16.861979166666664  3.765625 16.494791666666664  3.953125 16.234375  C 3.671875 15.713541666666664  3.458333333333334 15.197916666666664  3.3125 14.687500000000002  L 0.453125 14.265625000000002  C 0.31770833333333337 14.244791666666668  0.20833333333333334 14.1796875  0.125 14.070312499999998  C 0.041666666666666664 13.960937500000002  0 13.838541666666664  0 13.703125000000002  L 0 10.234375  C 0 10.109375  0.041666666666666664 9.989583333333332  0.125 9.875  C 0.20833333333333334 9.760416666666668  0.3072916666666667 9.692708333333332  0.421875 9.671875  L 3.328125 9.234375  C 3.4739583333333335 8.755208333333332  3.677083333333333 8.276041666666666  3.9375 7.796874999999999  C 3.5208333333333335 7.203125000000001  2.963541666666667 6.484374999999999  2.265625 5.640624999999999  C 2.1614583333333335 5.515625000000001  2.109375 5.390625  2.109375 5.265624999999999  C 2.109375 5.161458333333332  2.15625 5.041666666666663  2.25 4.906250000000001  C 2.5208333333333335 4.531250000000001  3.033854166666667 3.9713541666666643  3.7890625 3.226562499999999  C 4.544270833333334 2.4817708333333313  5.036458333333334 2.109375  5.265625 2.109375  C 5.401041666666667 2.109375  5.536458333333334 2.161458333333332  5.671875 2.265624999999999  L 7.828125 3.9375  C 8.286458333333334 3.697916666666665  8.760416666666668 3.500000000000001  9.25 3.343749999999999  C 9.416666666666668 1.9270833333333321  9.567708333333334 0.9583333333333313  9.703125 0.4374999999999991  C 9.776041666666668 0.14583333333333215  9.963541666666668 0  10.265625 0  L 13.734375 0  C 13.880208333333336 0  14.0078125 0.04427083333333126  14.1171875 0.1328124999999991  C 14.2265625 0.2213541666666643  14.286458333333332 0.33333333333333215  14.296875 0.46875  L 14.734375 3.343749999999999  C 15.244791666666668 3.510416666666665  15.713541666666668 3.703125  16.140625 3.921875000000001  L 18.359375 2.25  C 18.453125 2.15625  18.578125 2.109375  18.734375 2.109375  C 18.869791666666668 2.109375  19 2.161458333333332  19.125 2.265624999999999  C 20.46875 3.505208333333333  21.328125 4.390625000000001  21.703125 4.921875  C 21.776041666666668 5.005208333333333  21.8125 5.119791666666664  21.8125 5.265624999999999  C 21.8125 5.390625  21.770833333333336 5.510416666666663  21.6875 5.625  C 21.53125 5.843750000000001  21.265625 6.190104166666663  20.890625 6.664062500000001  C 20.515625 7.138020833333333  20.234375 7.505208333333332  20.046875 7.765625000000001  C 20.317708333333336 8.286458333333332  20.53125 8.796874999999998  20.6875 9.296875  L 23.546875 9.734375  C 23.682291666666668 9.755208333333332  23.791666666666668 9.820312499999996  23.875 9.9296875  Z " fill-rule="nonzero" fill="#ffffff" stroke="none" transform="matrix(1 0 0 1 438 3745 )" />
  </g>
</svg>