<?xml version="1.0" encoding="utf-8"?>
<svg version="1.1" xmlns:xlink="http://www.w3.org/1999/xlink" width="198px" height="120px" xmlns="http://www.w3.org/2000/svg">
  <g transform="matrix(1 0 0 1 -1171 -3481 )">
    <path d="M 1171 3481  L 1369 3481  L 1369 3601  L 1171 3601  L 1171 3481  " fill-rule="nonzero" fill="#cccccc" stroke="none" />
    <path d="M 1179 3489  L 1361 3489  L 1361 3593  L 1179 3593  L 1179 3489  " fill-rule="nonzero" fill="#ffffff" stroke="none" />
    <path d="M 1282.96 3517  C 1277.92 3517  1273.96 3513.04  1273.96 3508  C 1273.96 3502.96  1277.92 3499  1282.96 3499  C 1288 3499  1291.96 3502.96  1291.96 3508  C 1291.96 3513.04  1288 3517  1282.96 3517  " fill-rule="nonzero" fill="#cccccc" stroke="none" />
    <path d="M 1182 3590  L 1182 3536.1  L 1226 3511.6  L 1287.6 3554.3636363636365  L 1322.8 3526.3  L 1358 3554.3636363636365  L 1358 3590  L 1182 3590  " fill-rule="nonzero" fill="#169bd5" stroke="none" />
  </g>
</svg>