<?xml version="1.0" encoding="utf-8"?>
<svg version="1.1" xmlns:xlink="http://www.w3.org/1999/xlink" width="18px" height="12px" xmlns="http://www.w3.org/2000/svg">
  <g transform="matrix(1 0 0 1 -929 -4253 )">
    <path d="M 14.480000000000004 5.3605  C 14.432000000000002 3.9544999999999995  13.854 2.6183999999999994  12.861999999999995 1.6198999999999995  C 11.825999999999993 0.5824999999999996  10.420000000000002 0  8.953000000000003 0  C 7.486999999999995 0  6.081000000000003 0.5824999999999996  5.043999999999997 1.6198999999999995  C 4.421499999999995 2.2346000000000004  3.9586999999999932 2.9922000000000004  3.6961000000000013 3.8276000000000003  C 3.1510999999999996 4.0428  2.6573999999999955 4.369999999999999  2.246700000000004 4.7879000000000005  C 1.4449999999999932 5.5725  0.9947999999999979 6.648  1 7.770299999999999  C 1.0046999999999997 8.8905  1.4515999999999991 9.964200000000002  2.243399999999994 10.756  C 3.035899999999998 11.5485  4.109399999999994 11.9954  5.230000000000004 12  L 13.822999999999993 12  C 14.715999999999994 12  15.572000000000003 11.641300000000001  16.198999999999998 11.005400000000002  C 16.325000000000003 10.8824  16.436999999999998 10.7468  16.536 10.601299999999998  C 16.955 10.0352  17.179000000000002 9.350000000000001  17.176000000000002 8.6463  C 17.176000000000002 7.871600000000001  16.906999999999996 7.1206  16.415999999999997 6.521699999999999  C 15.924000000000007 5.922700000000001  15.239999999999995 5.512600000000001  14.480000000000004 5.3606  Z M 11.649000000000001 6.287199999999999  C 11.557000000000002 6.384  11.429000000000002 6.439299999999999  11.296000000000006 6.439299999999999  C 11.161000000000001 6.439299999999999  11.034000000000006 6.384  10.941999999999993 6.287199999999999  L 9.593999999999994 4.9392  L 9.593999999999994 8.9833  C 9.593999999999994 9.2624  9.367000000000004 9.488800000000001  9.087999999999994 9.488800000000001  C 8.808999999999997 9.488800000000001  8.582999999999998 9.2624  8.582999999999998 8.9833  L 8.582999999999998 4.9392  L 7.234999999999999 6.287199999999999  C 7.141999999999996 6.384  7.015000000000001 6.439299999999999  6.8799999999999955 6.439299999999999  C 6.747 6.439299999999999  6.619 6.384  6.527000000000001 6.287199999999999  C 6.429000000000002 6.192499999999999  6.373999999999995 6.061499999999999  6.373999999999995 5.9252  C 6.373999999999995 5.7883  6.429000000000002 5.6579999999999995  6.527000000000001 5.5626  L 9.087999999999994 3.0015  L 11.649000000000001 5.5626  C 11.747 5.6579999999999995  11.802000000000007 5.7883  11.802000000000007 5.9252  C 11.802000000000007 6.061499999999999  11.747 6.192499999999999  11.649000000000001 6.287199999999999  Z " fill-rule="nonzero" fill="#2a6ff6" stroke="none" transform="matrix(1 0 0 1 929 4253 )" />
  </g>
</svg>