<?xml version="1.0" encoding="utf-8"?>
<svg version="1.1" xmlns:xlink="http://www.w3.org/1999/xlink" width="16px" height="18px" xmlns="http://www.w3.org/2000/svg">
  <g transform="matrix(1 0 0 1 -201 -648 )">
    <path d="M 15.532999999999987 4.104201929971955  L 8.733000000000004 0.0859724880593771  C 8.538999999999987 -0.028657496019791777  8.298000000000002 -0.028657496019791777  8.104000000000013 0.0859724880593771  L 1.304000000000002 4.104201929971955  C 1.1159999999999997 4.215401914527513  1 4.417701886430294  1 4.636401856055299  C 1 4.855001825694193  1.1159999999999997 5.057301797596973  1.304000000000002 5.168601782138642  L 8.104000000000013 9.186701224069274  C 8.298000000000002 9.301401208138723  8.538999999999987 9.301401208138723  8.733000000000004 9.186701224069274  L 15.532999999999987 5.168601782138642  C 15.721000000000004 5.057301797596973  15.836000000000013 4.855001825694193  15.836000000000013 4.636401856055299  C 15.836000000000013 4.417701886430294  15.721000000000004 4.215401914527513  15.532999999999987 4.104201929971955  Z M 1.304000000000002 9.186701224069274  C 1.0100000000000051 9.013101248180385  0.9120000000000061 8.634001300833154  1.0859999999999985 8.34000134166648  C 1.2600000000000051 8.046101382485919  1.6389999999999958 7.948601396027585  1.933000000000007 8.122301371902587  L 8.418000000000006 11.954600839638772  L 14.903999999999996 8.122301371902587  C 15.198000000000008 7.948601396027585  15.576999999999998 8.046101382485919  15.751000000000005 8.34000134166648  C 15.924000000000007 8.634001300833154  15.826999999999998 9.013101248180385  15.532999999999987 9.186701224069274  L 8.733000000000004 13.205000665972127  C 8.538999999999987 13.319600650055467  8.298000000000002 13.319600650055467  8.104000000000013 13.205000665972127  L 1.304000000000002 9.186701224069274  Z M 1.304000000000002 12.89590070890268  C 1.0100000000000051 12.722200733027677  0.9120000000000061 12.343100785680445  1.0859999999999985 12.049100826513772  C 1.2600000000000051 11.755200867333212  1.6389999999999958 11.65780088086099  1.933000000000007 11.831400856749879  L 8.418000000000006 15.663700324486065  L 14.903999999999996 11.831400856749879  C 15.198000000000008 11.65780088086099  15.576999999999998 11.755200867333212  15.751000000000005 12.049100826513772  C 15.924000000000007 12.343100785680445  15.826999999999998 12.722200733027677  15.532999999999987 12.89590070890268  L 8.733000000000004 16.914000150833314  C 8.538999999999987 17.02870013490276  8.298000000000002 17.02870013490276  8.104000000000013 16.914000150833314  L 1.304000000000002 12.89590070890268  Z M 14.002999999999986 4.636401856055299  L 8.418000000000006 7.93650139770814  L 2.8329999999999984 4.636401856055299  L 8.418000000000006 1.3362223144135692  L 14.002999999999986 4.636401856055299  Z " fill-rule="nonzero" fill="#4b4b4b" stroke="none" transform="matrix(1 0 0 1 201 648 )" />
  </g>
</svg>