<?xml version="1.0" encoding="utf-8"?>
<svg version="1.1" xmlns:xlink="http://www.w3.org/1999/xlink" width="147px" height="36px" xmlns="http://www.w3.org/2000/svg">
  <g transform="matrix(1 0 0 1 -158 -5916 )">
    <path d="M 231.5 5917  C 272.1 5917  304 5924.48  304 5934  C 304 5943.52  272.1 5951  231.5 5951  C 190.9 5951  159 5943.52  159 5934  C 159 5924.48  190.9 5917  231.5 5917  Z " fill-rule="nonzero" fill="#ffffff" stroke="none" fill-opacity="0" />
    <path d="M 231.5 5917  C 272.1 5917  304 5924.48  304 5934  C 304 5943.52  272.1 5951  231.5 5951  C 190.9 5951  159 5943.52  159 5934  C 159 5924.48  190.9 5917  231.5 5917  Z " stroke-width="2" stroke="#d9001b" fill="none" />
  </g>
</svg>