<?xml version="1.0" encoding="utf-8"?>
<svg version="1.1" xmlns:xlink="http://www.w3.org/1999/xlink" width="348px" height="268px" xmlns="http://www.w3.org/2000/svg">
  <g transform="matrix(1 0 0 1 -280 -6758 )">
    <path d="M 280.5 7023  C 280.5 7023  280.5 6778.973076923077  280.5 6778.973076923077  C 280.5 6777.5923650485  281.619288125423 6776.473076923077  283 6776.473076923077  C 283 6776.473076923077  551.3322232708917 6776.473076923077  551.3322232708917 6776.473076923077  C 551.3322232708917 6776.473076923077  562.5462136076162 6759.758501095526  562.5462136076162 6759.758501095526  C 562.5462136076162 6759.758501095526  574.0474588692233 6776.473076923077  574.0474588692233 6776.473076923077  C 574.0474588692233 6776.473076923077  625 6776.473076923077  625 6776.473076923077  C 626.380711874577 6776.473076923077  627.5 6777.5923650485  627.5 6778.973076923077  C 627.5 6778.973076923077  627.5 7023  627.5 7023  C 627.5 7024.380711874577  626.380711874577 7025.5  625 7025.5  C 625 7025.5  283 7025.5  283 7025.5  C 281.619288125423 7025.5  280.5 7024.380711874577  280.5 7023  Z " fill-rule="nonzero" fill="#ffffff" stroke="none" />
    <path d="M 280 7023  C 280 7023  280 6778.973076923077  280 6778.973076923077  C 280 6777.316222673585  281.34314575050763 6775.973076923077  283 6775.973076923077  C 283 6775.973076923077  551.0655737704918 6775.973076923077  551.0655737704918 6775.973076923077  C 551.0655737704918 6775.973076923077  562.5409836065573 6758.868852459016  562.5409836065573 6758.868852459016  C 562.5409836065573 6758.868852459016  574.3103448275863 6775.973076923077  574.3103448275863 6775.973076923077  C 574.3103448275863 6775.973076923077  625 6775.973076923077  625 6775.973076923077  C 626.6568542494923 6775.973076923077  628 6777.316222673585  628 6778.973076923077  C 628 6778.973076923077  628 7023  628 7023  C 628 7024.656854249492  626.6568542494923 7026  625 7026  C 625 7026  283 7026  283 7026  C 281.34314575050763 7026  280 7024.656854249492  280 7023  Z M 281 7023  C 281 7024.104569499662  281.8954305003384 7025  283 7025  C 283 7025  625 7025  625 7025  C 626.1045694996615 7025  627 7024.104569499662  627 7023  C 627 7023  627 6778.973076923077  627 6778.973076923077  C 627 6777.868507423415  626.1045694996615 6776.973076923077  625 6776.973076923077  C 625 6776.973076923077  573.7845729108583 6776.973076923077  573.7845729108583 6776.973076923077  C 573.7845729108583 6776.973076923077  562.5514436086751 6760.648149732036  562.5514436086751 6760.648149732036  C 562.5514436086751 6760.648149732036  551.5988727712916 6776.973076923077  551.5988727712916 6776.973076923077  C 551.5988727712916 6776.973076923077  283 6776.973076923077  283 6776.973076923077  C 281.8954305003384 6776.973076923077  281 6777.868507423415  281 6778.973076923077  C 281 6778.973076923077  281 7023  281 7023  Z " fill-rule="nonzero" fill="#979797" stroke="none" />
  </g>
</svg>