<?xml version="1.0" encoding="utf-8"?>
<svg version="1.1" xmlns:xlink="http://www.w3.org/1999/xlink" width="41px" height="35px" xmlns="http://www.w3.org/2000/svg">
  <g transform="matrix(1 0 0 1 -327 -5389 )">
    <path d="M 34.468114285714286 0  L 36.56057857142858 2.0087958333333322  L 25.387785714285716 12.733583333333334  L 23.29502857142857 10.724874999999997  L 34.468114285714286 0  Z M 38.907242857142855 4.261279166666666  L 41 6.270074999999999  L 29.827207142857144 16.994833333333336  L 27.73445 14.986125  L 38.907242857142855 4.261279166666666  Z M 0.1685978571428575 34.237875  C -0.13603214285714316 33.67875  -0.020031428571429748 32.99391666666667  0.45337214285714383 32.556416666666664  L 19.866842857142856 14.611625000000002  L 21.91947857142857 16.657958333333333  L 6.150263571428571 31.234291666666667  L 19.61996428571429 28.648375  L 23.178471428571427 19.53933333333333  L 25.949778571428574 20.536833333333334  L 22.10222142857143 30.38525  C 21.9227 30.844916666666663  21.5086 31.18295833333333  21.006935714285714 31.279208333333333  L 1.7700285714285715 34.97229166666667  C 1.125537857142858 35.09595833333334  0.47325714285714277 34.797  0.1685978571428575 34.237875  Z " fill-rule="nonzero" fill="#4b4b4b" stroke="none" transform="matrix(1 0 0 1 327 5389 )" />
  </g>
</svg>