<?xml version="1.0" encoding="utf-8"?>
<svg version="1.1" xmlns:xlink="http://www.w3.org/1999/xlink" width="16px" height="6px" xmlns="http://www.w3.org/2000/svg">
  <g transform="matrix(1 0 0 1 -1058 -280 )">
    <path d="M 15.830357142857142 2.578125  C 15.943452380952381 2.696875  16 2.8375  16 3  C 16 3.1624999999999996  15.943452380952381 3.3031249999999996  15.830357142857142 3.421875  L 13.544642857142858 5.821875  C 13.43154761904762 5.940624999999999  13.29761904761905 6  13.142857142857142 6  C 12.988095238095239 6  12.854166666666668 5.940624999999999  12.741071428571429 5.821875  C 12.627976190476192 5.703125  12.571428571428571 5.5625  12.571428571428571 5.4  L 12.571428571428571 4.199999999999999  L 3.4285714285714284 4.199999999999999  L 3.4285714285714284 5.4  C 3.4285714285714284 5.5625  3.3720238095238093 5.703125  3.2589285714285716 5.821875  C 3.1458333333333335 5.940624999999999  3.0119047619047623 6  2.857142857142857 6  C 2.7023809523809526 6  2.568452380952381 5.940624999999999  2.455357142857143 5.821875  L 0.16964285714285715 3.421875  C 0.05654761904761905 3.3031249999999996  0 3.1624999999999996  0 3  C 0 2.8375  0.05654761904761905 2.696875  0.16964285714285715 2.578125  L 2.455357142857143 0.17812499999999987  C 2.568452380952381 0.05937499999999929  2.7023809523809526 0  2.857142857142857 0  C 3.0119047619047623 0  3.1458333333333335 0.05937499999999929  3.2589285714285716 0.17812499999999987  C 3.3720238095238093 0.2968749999999998  3.4285714285714284 0.4374999999999998  3.4285714285714284 0.5999999999999999  L 3.4285714285714284 1.8000000000000003  L 12.571428571428571 1.8000000000000003  L 12.571428571428571 0.5999999999999999  C 12.571428571428571 0.4374999999999998  12.627976190476192 0.2968749999999998  12.741071428571429 0.17812499999999987  C 12.854166666666668 0.05937499999999929  12.988095238095239 0  13.142857142857142 0  C 13.29761904761905 0  13.43154761904762 0.05937499999999929  13.544642857142858 0.17812499999999987  L 15.830357142857142 2.578125  Z " fill-rule="nonzero" fill="#4c4c4c" stroke="none" transform="matrix(1 0 0 1 1058 280 )" />
  </g>
</svg>