<?xml version="1.0" encoding="utf-8"?>
<svg version="1.1" xmlns:xlink="http://www.w3.org/1999/xlink" width="15px" height="16px" xmlns="http://www.w3.org/2000/svg">
  <g transform="matrix(1 0 0 1 -1059 -225 )">
    <path d="M 8.814338235294118 1.4375  C 8.612132352941176 1.2410714285714288  8.370098039215687 1.1428571428571423  8.088235294117647 1.1428571428571423  C 7.806372549019608 1.1428571428571423  7.5643382352941195 1.2410714285714288  7.362132352941176 1.4375  C 7.1599264705882355 1.6339285714285712  7.0588235294117645 1.8690476190476186  7.0588235294117645 2.1428571428571423  L 7.0588235294117645 8  L 6.764705882352941 8  L 6.764705882352941 3.2857142857142865  C 6.764705882352941 3.011904761904761  6.66360294117647 2.7767857142857135  6.46139705882353 2.5803571428571423  C 6.259191176470589 2.383928571428571  6.017156862745099 2.2857142857142865  5.735294117647058 2.2857142857142865  C 5.45343137254902 2.2857142857142865  5.211397058823529 2.383928571428571  5.009191176470588 2.5803571428571423  C 4.806985294117648 2.7767857142857135  4.705882352941177 3.011904761904761  4.705882352941177 3.2857142857142865  L 4.705882352941177 8  L 4.705882352941177 10.285714285714285  L 3.2904411764705883 8.455357142857142  C 3.0575980392156867 8.151785714285715  2.7450980392156863 8  2.3529411764705883 8  C 2.028186274509804 8  1.7509191176470589 8.111607142857142  1.521139705882353 8.334821428571429  C 1.291360294117647 8.558035714285715  1.1764705882352942 8.827380952380953  1.1764705882352942 9.142857142857142  C 1.1764705882352942 9.398809523809524  1.2561274509803924 9.62797619047619  1.4154411764705883 9.830357142857142  L 4.94485294117647 14.401785714285714  C 5.1776960784313735 14.705357142857142  5.490196078431373 14.857142857142858  5.88235294117647 14.857142857142858  L 12.205882352941176 14.857142857142858  C 12.414215686274511 14.857142857142858  12.601102941176471 14.791666666666668  12.766544117647058 14.660714285714286  C 12.931985294117649 14.529761904761903  13.036151960784316 14.363095238095239  13.07904411764706 14.160714285714286  L 13.777573529411764 10.544642857142858  C 13.808210784313726 10.354166666666664  13.823529411764705 10.178571428571429  13.823529411764705 10.017857142857142  L 13.823529411764705 5.571428571428571  C 13.823529411764705 5.2976190476190474  13.722426470588236 5.0625  13.520220588235293 4.866071428571429  C 13.318014705882351 4.669642857142858  13.075980392156863 4.571428571428571  12.794117647058822 4.571428571428571  C 12.512254901960787 4.571428571428571  12.270220588235293 4.669642857142858  12.068014705882353 4.866071428571429  C 11.865808823529411 5.0625  11.76470588235294 5.2976190476190474  11.76470588235294 5.571428571428571  L 11.76470588235294 8  L 11.470588235294116 8  L 11.470588235294116 3.2857142857142865  C 11.470588235294116 3.011904761904761  11.369485294117647 2.7767857142857135  11.167279411764707 2.5803571428571423  C 10.965073529411764 2.383928571428571  10.723039215686274 2.2857142857142865  10.441176470588236 2.2857142857142865  C 10.159313725490199 2.2857142857142865  9.917279411764707 2.383928571428571  9.715073529411764 2.5803571428571423  C 9.512867647058822 2.7767857142857135  9.411764705882353 3.011904761904761  9.411764705882353 3.2857142857142865  L 9.411764705882353 8  L 9.117647058823529 8  L 9.117647058823529 2.1428571428571423  C 9.117647058823529 1.8690476190476186  9.016544117647058 1.6339285714285712  8.814338235294118 1.4375  Z M 6.934742647058824 0.3169642857142865  C 7.2870710784313735 0.10565476190476275  7.671568627450982 0  8.088235294117647 0  C 8.504901960784315 0  8.889399509803923 0.10565476190476275  9.241727941176471 0.3169642857142865  C 9.594056372549021 0.5282738095238084  9.865196078431374 0.8154761904761898  10.055147058823529 1.1785714285714288  C 10.17156862745098 1.1547619047619033  10.300245098039216 1.1428571428571423  10.441176470588236 1.1428571428571423  C 11.04779411764706 1.1428571428571423  11.567095588235293 1.3526785714285712  11.99908088235294 1.7723214285714288  C 12.431066176470589 2.1919642857142865  12.647058823529411 2.696428571428571  12.647058823529411 3.2857142857142865  L 12.647058823529411 3.4375  C 13.290441176470587 3.4017857142857135  13.84344362745098 3.5922619047619033  14.306066176470589 4.008928571428571  C 14.768688725490197 4.425595238095237  15.000000000000004 4.946428571428571  15 5.571428571428571  L 15 10.017857142857142  C 15.000000000000004 10.25595238095238  14.975490196078432 10.50297619047619  14.926470588235293 10.758928571428571  L 14.227941176470587 14.366071428571429  C 14.1421568627451 14.836309523809524  13.9077818627451 15.226190476190476  13.524816176470587 15.535714285714286  C 13.141850490196079 15.845238095238097  12.70220588235294 16  12.205882352941176 16  L 5.88235294117647 16  C 5.514705882352942 16  5.16390931372549 15.918154761904761  4.829963235294118 15.754464285714286  C 4.496017156862746 15.59077380952381  4.218750000000001 15.36904761904762  3.9981617647058822 15.089285714285714  L 0.46875 10.517857142857142  C 0.15625 10.113095238095237  0 9.654761904761905  0 9.142857142857142  C 0 8.511904761904761  0.22977941176470587 7.9732142857142865  0.6893382352941178 7.5267857142857135  C 1.1488970588235294 7.080357142857142  1.7034313725490196 6.857142857142858  2.3529411764705883 6.857142857142858  C 2.8308823529411766 6.857142857142858  3.2230392156862746 6.958333333333334  3.5294117647058822 7.1607142857142865  L 3.5294117647058822 3.2857142857142865  C 3.5294117647058822 2.696428571428571  3.745404411764706 2.1919642857142865  4.177389705882353 1.7723214285714288  C 4.609375 1.3526785714285712  5.1286764705882355 1.1428571428571423  5.735294117647058 1.1428571428571423  C 5.876225490196078 1.1428571428571423  6.004901960784314 1.1547619047619033  6.1213235294117645 1.1785714285714288  C 6.311274509803923 0.8154761904761898  6.582414215686275 0.5282738095238084  6.934742647058824 0.3169642857142865  Z " fill-rule="nonzero" fill="#4c4c4c" stroke="none" transform="matrix(1 0 0 1 1059 225 )" />
  </g>
</svg>